<mxfile host="65bd71144e">
    <diagram id="yO6KNj62k519STtY0whN" name="Page-1">
        <mxGraphModel dx="1467" dy="1014" grid="1" gridSize="10" guides="1" tooltips="1" connect="1" arrows="1" fold="1" page="1" pageScale="1" pageWidth="827" pageHeight="1169" math="0" shadow="0">
            <root>
                <mxCell id="0"/>
                <mxCell id="1" parent="0"/>
                <mxCell id="2" value="" style="rounded=0;whiteSpace=wrap;html=1;fillColor=#F9C784;" vertex="1" parent="1">
                    <mxGeometry x="80" y="80" width="790" height="400" as="geometry"/>
                </mxCell>
                <mxCell id="3" value="" style="rounded=0;whiteSpace=wrap;html=1;fillColor=#4E598C;" vertex="1" parent="1">
                    <mxGeometry x="80" y="80" width="790" height="50" as="geometry"/>
                </mxCell>
                <mxCell id="4" value="Beerlog" style="text;html=1;strokeColor=none;fillColor=none;align=center;verticalAlign=middle;whiteSpace=wrap;rounded=0;fontColor=#FFFFFF;fontSize=22;fontStyle=1" vertex="1" parent="1">
                    <mxGeometry x="110" y="90" width="60" height="30" as="geometry"/>
                </mxCell>
                <mxCell id="5" value="" style="rounded=0;whiteSpace=wrap;html=1;fillColor=#F9B364;" vertex="1" parent="1">
                    <mxGeometry x="220" y="190" width="510" height="210" as="geometry"/>
                </mxCell>
                <mxCell id="6" value="Email :&lt;br style=&quot;font-size: 18px;&quot;&gt;&lt;br style=&quot;font-size: 18px;&quot;&gt;&lt;div style=&quot;font-size: 18px;&quot;&gt;&lt;span style=&quot;background-color: initial; font-size: 18px;&quot;&gt;Password :&amp;nbsp;&lt;/span&gt;&lt;/div&gt;&lt;div style=&quot;font-size: 18px;&quot;&gt;&lt;span style=&quot;background-color: initial; font-size: 18px;&quot;&gt;&lt;br&gt;&lt;/span&gt;&lt;/div&gt;&lt;div style=&quot;font-size: 18px;&quot;&gt;&lt;span style=&quot;background-color: initial; font-size: 18px;&quot;&gt;Confirm password :&lt;/span&gt;&lt;/div&gt;" style="text;html=1;strokeColor=none;fillColor=none;align=left;verticalAlign=top;whiteSpace=wrap;rounded=0;fontSize=18;" vertex="1" parent="1">
                    <mxGeometry x="250" y="220" width="200" height="80" as="geometry"/>
                </mxCell>
                <mxCell id="7" value="" style="rounded=0;whiteSpace=wrap;html=1;fontSize=18;fillColor=#FFFFFF;" vertex="1" parent="1">
                    <mxGeometry x="324" y="227" width="372" height="20" as="geometry"/>
                </mxCell>
                <mxCell id="8" value="" style="rounded=0;whiteSpace=wrap;html=1;fontSize=18;fillColor=#FFFFFF;" vertex="1" parent="1">
                    <mxGeometry x="346" y="272" width="350" height="20" as="geometry"/>
                </mxCell>
                <mxCell id="9" value="Create account" style="rounded=1;whiteSpace=wrap;html=1;strokeColor=#000000;fontSize=14;fontColor=#FFFFFF;fillColor=#FF8C42;gradientColor=none;" vertex="1" parent="1">
                    <mxGeometry x="420" y="350" width="110" height="40" as="geometry"/>
                </mxCell>
                <mxCell id="10" value="" style="rounded=0;whiteSpace=wrap;html=1;fontSize=18;fillColor=#FFFFFF;" vertex="1" parent="1">
                    <mxGeometry x="416" y="315" width="280" height="20" as="geometry"/>
                </mxCell>
            </root>
        </mxGraphModel>
    </diagram>
</mxfile>